<svg xmlns="http://www.w3.org/2000/svg" width="628" height="272" fill="none">
  <rect width="628" height="272" fill="#ACA7C3" rx="8"/>
  <path fill="#7B61FF" fill-opacity=".64" d="M415.926 74.38H388.1v114.764c0 4.151-3.065 7.325-7.074 7.325H236v23.441c0 4.151 3.066 7.325 7.074 7.325h172.852c4.009 0 7.074-3.174 7.074-7.325V81.706c0-4.151-3.065-7.325-7.074-7.325Z"/>
  <path fill="#7B61FF" d="M382.903 197.804c4.022 0 7.097-3.189 7.097-7.359V51.359c0-4.17-3.076-7.359-7.097-7.359H212.097c-4.021 0-7.097 3.189-7.097 7.359v139.086c0 4.17 3.076 7.359 7.097 7.359H382.903Z"/>
  <path fill="#4B31D3" fill-opacity=".64" d="M339.099 89.775c0-11.972-9.427-21.744-20.975-21.744-11.548 0-20.976 9.772-20.976 21.743 0 11.972 9.428 21.744 20.976 21.744 11.548 0 20.975-9.772 20.975-21.743Z"/>
  <path fill="#4B31D3" fill-opacity=".64" d="M281.123 93.928c-2.357 0-4.478 1.221-5.892 3.176l-41.243 62.544c-1.415 2.199-1.65 5.13-.472 7.574 1.178 2.442 3.535 3.908 6.363 3.908h119.489c2.828 0 5.185-1.71 6.363-4.153 1.178-2.443.943-5.619-.943-7.818l-27.574-35.669c-1.414-1.711-3.299-2.688-5.42-2.688s-4.242.977-5.421 2.688l-11.783 15.147-27.575-41.533c-1.414-1.955-3.535-3.176-5.892-3.176Z"/>
</svg>
