<svg xmlns="http://www.w3.org/2000/svg" width="302" height="336" fill="none">
  <rect width="302" height="336" fill="#ACA7C3" rx="8"/>
  <path fill="#7B61FF" fill-opacity=".64" d="M252.926 84H225.1v120.879c0 4.372-3.065 7.715-7.074 7.715H73v24.691c0 4.372 3.066 7.715 7.074 7.715h172.852c4.009 0 7.074-3.344 7.074-7.715V91.715c0-4.372-3.065-7.715-7.074-7.715Z"/>
  <path fill="#7B61FF" d="M219.903 214c4.022 0 7.097-3.359 7.097-7.751V59.751c0-4.393-3.076-7.751-7.097-7.751H49.097C45.075 52 42 55.359 42 59.751v146.498c0 4.393 3.075 7.751 7.097 7.751H219.903Z"/>
  <path fill="#4B31D3" fill-opacity=".64" d="M176.099 100.214c0-12.61-9.427-22.903-20.975-22.903-11.548 0-20.976 10.294-20.976 22.903 0 12.609 9.428 22.903 20.976 22.903 11.548 0 20.975-10.294 20.975-22.903Z"/>
  <path fill="#4B31D3" fill-opacity=".64" d="M118.123 104.589c-2.357 0-4.478 1.286-5.892 3.345l-41.243 65.877c-1.415 2.316-1.65 5.404-.472 7.977 1.178 2.573 3.535 4.118 6.363 4.118h119.489c2.828 0 5.185-1.802 6.363-4.375 1.178-2.574.943-5.919-.943-8.235l-27.574-37.57c-1.414-1.801-3.299-2.831-5.42-2.831s-4.242 1.03-5.421 2.831L151.59 151.68l-27.575-43.746c-1.414-2.059-3.535-3.345-5.892-3.345Z"/>
</svg>
